<svg width="40" height="40" viewBox="0 0 40 40" fill="none" xmlns="http://www.w3.org/2000/svg">
<mask id="mask0_1_77" style="mask-type:alpha" maskUnits="userSpaceOnUse" x="0" y="0" width="40" height="40">
<rect width="40" height="40" fill="#D9D9D9"/>
</mask>
<g mask="url(#mask0_1_77)">
<path d="M6.52353 33.5704C2.66579 29.9015 9.7261 25.4579 9.7261 20.3194C9.7261 15.1809 2.96343 11.1174 6.52353 7.25457C10.1769 3.29046 14.6631 10.0528 20.0536 9.99194C25.1595 9.9343 29.3228 3.02647 32.8393 6.72896C36.2993 10.3719 29.9314 14.7382 29.8228 19.7612C29.7035 25.2799 36.8961 29.827 32.8393 33.5704C28.8813 37.2226 24.8808 30.051 19.4953 30.0887C14.2504 30.1254 10.3242 37.185 6.52353 33.5704Z" fill="#4C00FF"/>
<path fill-rule="evenodd" clip-rule="evenodd" d="M13.5962 37.4778C16.6793 34.3947 16.6793 29.396 13.5962 26.3129C10.5131 23.2298 5.51445 23.2298 2.43136 26.3129C-0.651726 29.396 -0.651726 34.3947 2.43136 37.4778C5.51445 40.5609 10.5131 40.5609 13.5962 37.4778ZM11.1771 35.0587C12.9242 33.3116 12.9242 30.4791 11.1771 28.732C9.43005 26.9849 6.59747 26.9849 4.85038 28.732C3.1033 30.4791 3.1033 33.3116 4.85038 35.0587C6.59747 36.8058 9.43005 36.8058 11.1771 35.0587Z" fill="#FF5252"/>
<path fill-rule="evenodd" clip-rule="evenodd" d="M13.9683 14.4038C17.0514 11.3207 17.0514 6.32201 13.9683 3.23893C10.8852 0.155841 5.88658 0.155842 2.80349 3.23893C-0.279595 6.32201 -0.279595 11.3207 2.80349 14.4038C5.88658 17.4869 10.8852 17.4869 13.9683 14.4038ZM11.5493 11.9847C13.2964 10.2376 13.2964 7.40505 11.5493 5.65797C9.80222 3.91088 6.96964 3.91088 5.22255 5.65797C3.47547 7.40505 3.47547 10.2376 5.22255 11.9847C6.96964 13.7318 9.80222 13.7318 11.5493 11.9847Z" fill="#FF5252"/>
<path fill-rule="evenodd" clip-rule="evenodd" d="M36.8563 13.8455C39.9394 10.7624 39.9394 5.76376 36.8563 2.68067C33.7732 -0.402417 28.7745 -0.402417 25.6914 2.68067C22.6083 5.76376 22.6083 10.7624 25.6914 13.8455C28.7745 16.9286 33.7732 16.9286 36.8563 13.8455ZM34.4372 11.4265C36.1843 9.67939 36.1843 6.84681 34.4372 5.09973C32.6901 3.35265 29.8575 3.35265 28.1104 5.09973C26.3634 6.84681 26.3634 9.6794 28.1104 11.4265C29.8575 13.1736 32.6901 13.1736 34.4372 11.4265Z" fill="#FF5252"/>
<path fill-rule="evenodd" clip-rule="evenodd" d="M36.6702 37.1056C39.7533 34.0225 39.7533 29.0239 36.6702 25.9408C33.5871 22.8577 28.5884 22.8577 25.5053 25.9408C22.4222 29.0239 22.4222 34.0225 25.5053 37.1056C28.5884 40.1887 33.5871 40.1887 36.6702 37.1056ZM34.2511 34.6866C35.9982 32.9395 35.9982 30.1069 34.2511 28.3598C32.5041 26.6127 29.6715 26.6127 27.9244 28.3598C26.1773 30.1069 26.1773 32.9395 27.9244 34.6866C29.6715 36.4336 32.5041 36.4336 34.2511 34.6866Z" fill="#FF5252"/>
</g>
</svg>
